<svg version="1.1" id="Layer_1" xmlns="http://www.w3.org/2000/svg" xmlns:xlink="http://www.w3.org/1999/xlink" x="0px" y="0px"
	 width="100%" viewBox="0 0 960 480" enable-background="new 0 0 960 480" xml:space="preserve">
<path fill="#000000" opacity="1.000000" stroke="none" 
	d="
M154.468658,481.000000 
	C155.299118,476.750732 154.507980,472.391907 154.622559,468.086731 
	C154.793533,461.663727 154.698853,461.652557 161.406433,461.651123 
	C182.239639,461.646729 203.074509,461.507751 223.904770,461.755493 
	C228.729034,461.812866 229.991928,459.867920 230.758179,455.529572 
	C234.733109,433.023987 246.771744,415.853149 265.969177,403.559570 
	C282.427277,393.020203 300.618103,389.349823 319.765625,390.748138 
	C355.589630,393.364410 389.063812,418.818451 394.317657,457.165649 
	C394.938232,461.695190 397.725189,461.679626 401.089691,461.676880 
	C443.089386,461.642365 485.089142,461.658722 527.088867,461.658325 
	C543.588745,461.658173 560.090698,461.507324 576.587158,461.741791 
	C580.803772,461.801727 582.083191,459.948639 582.642761,456.322235 
	C586.273010,432.796570 599.032593,415.490906 618.947998,402.982697 
	C635.378967,392.662964 653.497192,389.224152 672.408508,390.800598 
	C704.994690,393.516998 735.305603,414.367859 744.709595,448.526306 
	C745.367249,450.915222 746.209167,453.363678 746.235474,455.792358 
	C746.284851,460.357483 748.293091,461.738159 752.724060,461.724976 
	C793.890076,461.602295 835.063843,462.124603 876.220642,461.498505 
	C906.982300,461.030518 932.766846,441.602997 939.170898,412.434265 
	C940.445007,406.631195 939.903870,406.292236 934.204285,405.241394 
	C915.086548,401.716705 896.988281,395.884735 884.970276,379.100159 
	C876.626648,367.447174 878.378662,351.019714 888.147400,340.529388 
	C897.461243,330.527679 909.189270,325.086182 922.037903,321.595123 
	C929.955139,319.443909 930.117554,319.509308 927.337463,311.667328 
	C925.178101,305.576141 922.562500,299.648224 920.294495,293.593475 
	C919.073975,290.335205 916.521423,290.367371 913.765625,290.371613 
	C893.265747,290.403351 872.761963,290.647980 852.267090,290.329712 
	C828.091797,289.954315 805.550049,283.865204 786.594971,268.200836 
	C767.212219,252.182983 754.590393,232.050003 751.593262,206.552063 
	C749.563110,189.281250 751.077087,171.962601 750.759521,154.669937 
	C750.686096,150.670975 749.667419,148.719101 745.615356,147.722702 
	C724.485046,142.526840 703.191833,139.145142 681.358337,138.210541 
	C641.388855,136.499603 601.426758,137.507904 561.466553,137.439819 
	C428.301086,137.212921 295.134979,137.344650 161.969147,137.337784 
	C154.670959,137.337402 154.670959,137.332535 154.655136,129.961060 
	C154.624374,115.635742 154.624374,115.639801 169.035324,115.639748 
	C320.701050,115.639160 472.366791,115.637688 624.032532,115.634171 
	C632.165955,115.633980 632.152283,115.621971 633.590271,107.627129 
	C635.521973,96.886772 639.125916,86.889565 645.472717,77.823372 
	C656.541748,62.011852 675.354431,56.596195 690.354431,65.734093 
	C701.201294,72.341949 707.334045,82.689064 711.424194,94.446205 
	C713.778198,101.212982 715.342346,108.159012 716.233398,115.223839 
	C716.609192,118.203606 718.028809,119.239777 720.622559,119.595047 
	C755.208496,124.332382 787.393677,136.267441 818.034424,152.568451 
	C836.845703,162.576141 854.121765,174.858231 870.211609,188.892914 
	C891.789734,207.714920 910.120728,229.193680 924.913818,253.693924 
	C941.553589,281.252594 953.084778,310.746155 958.407471,342.572479 
	C959.225342,347.462677 959.975403,352.364258 960.878418,357.630310 
	C961.000000,378.020905 961.000000,398.041779 960.901489,418.883057 
	C955.746277,440.051575 944.439209,456.008301 927.244080,467.959229 
	C918.841919,473.798920 909.528687,477.589355 900.000000,481.000000 
	C841.979126,481.000000 783.958191,481.000000 725.356689,480.542480 
	C724.737610,475.596283 724.719116,471.107361 724.657104,466.619049 
	C724.427368,449.982300 716.773682,436.721802 704.193176,426.874054 
	C685.429626,412.186340 664.257996,408.963593 641.597412,417.092499 
	C622.582642,423.913574 605.906616,442.516266 604.108032,463.788116 
	C603.616272,469.604126 605.556946,475.295624 604.000000,481.000000 
	C527.312439,481.000000 450.624878,481.000000 373.357239,480.542358 
	C372.738312,475.595856 372.735199,471.106354 372.654266,466.618256 
	C372.355347,450.035767 364.892029,436.712158 352.268646,426.835968 
	C333.285034,411.983856 311.712250,408.530243 289.194092,417.375061 
	C267.894775,425.741150 254.581818,441.056427 252.200134,464.737488 
	C251.650040,470.207092 253.396683,475.607574 252.000000,481.000000 
	C219.645767,481.000000 187.291550,481.000000 154.468658,481.000000 
M782.890869,160.884781 
	C777.226990,158.252930 771.570496,155.599213 765.542664,154.504974 
	C763.787842,156.421707 764.373718,158.345612 764.364990,160.099213 
	C764.308533,171.425461 764.199280,182.754562 764.403564,194.077408 
	C764.483765,198.522705 765.033142,203.010803 765.873901,207.382263 
	C769.475708,226.108627 778.349060,242.009613 792.825317,254.403046 
	C807.990295,267.386017 825.489868,275.310577 845.765076,275.589935 
	C865.249695,275.858368 884.740967,275.672089 904.229126,275.624329 
	C906.148315,275.619629 908.207825,276.191925 909.904785,274.993622 
	C910.539490,273.777161 909.887634,272.833588 909.438293,272.044312 
	C899.633240,254.820450 887.873840,239.017929 874.415833,224.491638 
	C861.958618,211.045425 848.089050,199.173660 833.117126,188.634155 
	C817.607849,177.716400 801.123169,168.490280 782.890869,160.884781 
M905.273682,379.177277 
	C914.619751,386.407806 925.735535,389.048981 936.964783,391.392853 
	C939.638306,391.950928 940.472961,390.604370 940.681885,388.135620 
	C940.926941,385.239746 939.687988,382.556610 939.714783,379.760040 
	C939.848938,365.763885 937.491821,352.104523 934.864563,338.420746 
	C934.049133,334.173584 932.325256,333.577667 928.932434,334.474243 
	C918.915405,337.121399 908.986816,340.440552 901.492126,347.782074 
	C892.426514,356.662628 891.495605,363.679260 897.864319,372.297302 
	C899.708069,374.792145 901.846558,377.222290 905.273682,379.177277 
z"/>
<path fill="#000000" opacity="1.000000" stroke="none" 
	d="
M1.000000,209.454102 
	C3.953619,206.183304 7.460304,205.564041 11.490473,205.574326 
	C56.450954,205.689117 101.411835,205.646164 146.372604,205.655228 
	C152.994965,205.656570 156.322342,208.456055 156.311508,213.945648 
	C156.300919,219.313171 152.175110,223.317352 146.218872,223.323456 
	C100.925133,223.369873 55.631310,223.338440 10.337539,223.368240 
	C6.734551,223.370621 3.999757,221.791397 1.318080,219.143707 
	C1.000000,215.969406 1.000000,212.938812 1.000000,209.454102 
z"/>
<path fill="#000000" opacity="1.000000" stroke="none" 
	d="
M1.000000,371.449982 
	C4.399624,368.246613 8.266394,367.566223 12.615558,367.577698 
	C56.775845,367.694153 100.936554,367.639252 145.097137,367.665863 
	C154.001144,367.671204 158.019180,372.669159 155.485855,380.148071 
	C154.198975,383.947205 151.472198,385.236877 147.875961,385.307404 
	C143.378235,385.395691 138.877655,385.342407 134.378296,385.342133 
	C93.217300,385.339661 52.056290,385.320587 10.895324,385.355011 
	C6.846783,385.358398 3.210695,384.848175 1.161191,380.314453 
	C1.000000,377.299988 1.000000,374.599976 1.000000,371.449982 
z"/>
<path fill="#000000" opacity="1.000000" stroke="none" 
	d="
M676.550049,1.000000 
	C677.102722,13.607914 677.164978,26.216366 677.332214,38.823425 
	C677.384277,42.743896 674.698853,42.238007 672.219788,42.376492 
	C669.252563,42.542244 667.566895,41.739670 667.613770,38.271545 
	C667.777527,26.154192 667.737732,14.034083 667.887573,1.457510 
	C670.700012,1.000000 673.400024,1.000000 676.550049,1.000000 
z"/>
<path fill="#000000" opacity="1.000000" stroke="none" 
	d="
M486.974426,378.374756 
	C459.210510,378.647095 435.497559,369.070374 416.394348,350.101562 
	C398.010925,331.847473 387.867493,309.434753 387.481964,282.813995 
	C387.228088,265.282013 390.121429,248.796219 398.315613,233.289062 
	C410.331848,210.548798 428.504089,194.648087 452.666168,186.179459 
	C479.103790,176.913284 505.512238,178.258453 530.462769,190.972351 
	C559.734253,205.888077 578.055237,229.845612 583.264709,262.598297 
	C587.760803,290.865540 582.387512,317.237671 564.338318,340.097198 
	C547.607300,361.287170 525.966125,374.194244 498.851624,377.471466 
	C495.048798,377.931091 491.288330,378.425842 486.974426,378.374756 
M517.603333,349.150726 
	C527.171326,344.078400 535.954895,338.100311 543.111084,329.730103 
	C559.205078,310.906036 565.775208,289.498138 561.047668,265.075256 
	C556.594482,242.069504 543.493103,224.886383 523.638428,212.973373 
	C508.566986,203.930328 491.829712,201.389359 474.642334,203.857635 
	C455.744171,206.571579 439.933594,215.603455 427.763092,230.398575 
	C412.378357,249.101120 406.098602,270.284424 411.093597,294.412659 
	C414.842590,312.522125 424.005402,327.367432 438.224518,338.913147 
	C450.886108,349.194183 465.381500,355.104858 481.977661,355.729736 
	C494.161621,356.188507 505.750519,354.240692 517.603333,349.150726 
z"/>
<path fill="#000000" opacity="1.000000" stroke="none" 
	d="
M90.000099,248.655548 
	C119.820694,248.654709 149.141312,248.632172 178.461853,248.668243 
	C186.252594,248.677826 189.657730,252.053894 189.359726,258.957306 
	C189.190231,262.883698 186.660965,264.795593 183.593094,266.321045 
	C181.610809,267.306702 179.447388,267.366394 177.260498,267.365234 
	C133.446228,267.342285 89.631927,267.337311 45.817657,267.361328 
	C42.942486,267.362915 40.031792,267.278259 37.730850,265.479523 
	C34.501472,262.955017 32.995636,259.696991 34.262062,255.403091 
	C35.656906,250.673782 38.884697,248.695129 43.520233,248.681488 
	C58.846745,248.636322 74.173454,248.659103 90.000099,248.655548 
z"/>
<path fill="#000000" opacity="1.000000" stroke="none" 
	d="
M41.002319,344.369019 
	C36.003304,344.362488 31.497465,344.503326 27.005575,344.313690 
	C20.530075,344.040314 17.599850,340.851990 17.655445,334.518127 
	C17.706079,328.749451 20.851021,325.680237 27.324032,325.672943 
	C72.320366,325.622192 117.316811,325.631348 162.313156,325.680908 
	C169.320801,325.688629 172.407944,328.754883 172.339157,335.158875 
	C172.270996,341.502289 169.234375,344.316986 161.992050,344.326202 
	C123.328545,344.375397 84.664940,344.360474 46.001373,344.367737 
	C44.501492,344.368011 43.001606,344.368378 41.002319,344.369019 
z"/>
<path fill="#000000" opacity="1.000000" stroke="none" 
	d="
M58.691986,297.080170 
	C60.834118,290.088287 62.567749,288.670959 68.851639,288.668457 
	C113.962456,288.650391 159.073273,288.646484 204.184082,288.660034 
	C210.505783,288.661926 213.704788,291.010864 214.304749,295.907471 
	C215.095627,302.362335 211.606094,306.304749 204.821106,306.330597 
	C187.176514,306.397827 169.531555,306.374023 151.886734,306.377411 
	C124.420738,306.382660 96.954735,306.386688 69.488739,306.376892 
	C62.333820,306.374329 60.133850,304.540344 58.691986,297.080170 
z"/>
<path fill="#000000" opacity="1.000000" stroke="none" 
	d="
M623.614136,27.398985 
	C631.942200,37.072094 640.019165,46.495247 647.982605,55.785984 
	C643.186218,63.771881 640.941162,63.783089 635.510010,57.153236 
	C628.163086,48.184723 620.473877,39.496597 612.913818,30.667578 
	C614.605347,27.559849 617.013794,25.617165 619.605774,23.907146 
	C621.605774,24.283003 622.052185,26.212473 623.614136,27.398985 
z"/>
<path fill="#000000" opacity="1.000000" stroke="none" 
	d="
M710.953369,55.865280 
	C709.940002,57.208874 709.134583,58.257771 708.318787,59.298481 
	C706.532837,61.576809 705.363220,64.632416 701.362183,61.712376 
	C697.816772,59.124924 696.888428,56.985825 699.769592,53.288216 
	C706.768005,44.306480 713.635437,35.217529 720.337219,26.012701 
	C722.602539,22.901215 724.311401,23.685965 726.862488,25.521526 
	C729.484314,27.407991 731.185303,28.960402 728.716858,32.189415 
	C722.798035,39.931904 717.002136,47.768322 710.953369,55.865280 
z"/>
<path fill="#000000" opacity="1.000000" stroke="none" 
	d="
M524.914001,288.352295 
	C516.265503,288.354248 508.104156,288.451477 499.946869,288.311401 
	C496.484680,288.251984 495.247467,289.601288 495.302704,293.037079 
	C495.450043,302.193512 495.221466,311.356323 495.398010,320.511688 
	C495.468506,324.166504 494.217529,325.378510 490.518341,325.440369 
	C474.653870,325.705536 474.656921,325.811829 474.659119,310.038849 
	C474.659882,304.543518 474.468506,299.040070 474.711456,293.555664 
	C474.883179,289.679932 473.556213,288.211548 469.582611,288.309967 
	C460.928864,288.524353 452.263702,288.249878 443.607452,288.407928 
	C440.051941,288.472809 438.656158,287.385529 438.579895,283.600555 
	C438.278778,268.657837 438.159149,268.660126 452.876434,268.658936 
	C458.205231,268.658508 463.553802,268.374268 468.856964,268.742767 
	C473.652100,269.075928 474.880249,267.096893 474.729919,262.648438 
	C474.454498,254.498123 474.893127,246.322159 474.565155,238.175751 
	C474.383331,233.659195 476.037598,232.244492 480.322052,232.603622 
	C483.794739,232.894684 487.320587,232.825150 490.805481,232.620316 
	C494.330200,232.413132 495.450714,233.904297 495.392151,237.303024 
	C495.240082,246.126160 495.483856,254.956802 495.286407,263.778107 
	C495.204254,267.450012 496.409546,268.812012 500.147064,268.718140 
	C508.301575,268.513367 516.464905,268.652435 524.624634,268.662964 
	C531.328552,268.671600 531.330383,268.679260 531.347046,275.616547 
	C531.352661,277.947906 531.112854,280.307861 531.394348,282.604614 
	C531.977051,287.359131 529.817688,288.957489 524.914001,288.352295 
z"/>
</svg>